<?xml version="1.0" encoding="UTF-8" standalone="no"?>
<svg
   xmlns:osb="http://www.openswatchbook.org/uri/2009/osb"
   xmlns:dc="http://purl.org/dc/elements/1.1/"
   xmlns:cc="http://creativecommons.org/ns#"
   xmlns:rdf="http://www.w3.org/1999/02/22-rdf-syntax-ns#"
   xmlns:svg="http://www.w3.org/2000/svg"
   xmlns="http://www.w3.org/2000/svg"
   xmlns:sodipodi="http://sodipodi.sourceforge.net/DTD/sodipodi-0.dtd"
   xmlns:inkscape="http://www.inkscape.org/namespaces/inkscape"
   width="192.07799mm"
   height="193.80876mm"
   clip-rule="evenodd"
   fill-rule="evenodd"
   image-rendering="optimizeQuality"
   shape-rendering="geometricPrecision"
   text-rendering="geometricPrecision"
   version="1.1"
   viewBox="0 0 17758.251 17918.059"
   xml:space="preserve"
   id="svg208"
   sodipodi:docname="oscifant.svg"
   inkscape:version="1.0.1 (3bc2e813f5, 2020-09-07)"
   inkscape:export-filename="C:\Users\Florian Thiery\Desktop\oscifant.png"
   inkscape:export-xdpi="524.22815"
   inkscape:export-ydpi="524.22815"><metadata
   id="metadata212"><rdf:RDF><cc:Work
       rdf:about=""><dc:format>image/svg+xml</dc:format><dc:type
         rdf:resource="http://purl.org/dc/dcmitype/StillImage" /><dc:title></dc:title></cc:Work></rdf:RDF></metadata><sodipodi:namedview
   pagecolor="#ffffff"
   bordercolor="#666666"
   borderopacity="1"
   objecttolerance="10"
   gridtolerance="10"
   guidetolerance="10"
   inkscape:pageopacity="0"
   inkscape:pageshadow="2"
   inkscape:window-width="1920"
   inkscape:window-height="1137"
   id="namedview210"
   showgrid="false"
   inkscape:zoom="1.0272619"
   inkscape:cx="397.51506"
   inkscape:cy="381.25474"
   inkscape:window-x="1358"
   inkscape:window-y="-8"
   inkscape:window-maximized="1"
   inkscape:current-layer="svg208"
   inkscape:document-rotation="0"
   fit-margin-top="0"
   fit-margin-left="0"
   fit-margin-right="0"
   fit-margin-bottom="0" />
 <defs
   id="defs4"><linearGradient
   id="linearGradient916"
   osb:paint="solid"><stop
     style="stop-color:#9800a1;stop-opacity:1;"
     offset="0"
     id="stop914" /></linearGradient>
  <style
   type="text/css"
   id="style2">
   <![CDATA[
    .fil9 {fill:#FEFEFE}
    .fil0 {fill:#D2E28B}
    .fil4 {fill:#AFBD77}
    .fil1 {fill:#C7D682}
    .fil2 {fill:#744C39}
    .fil16 {fill:#87AD4A}
    .fil3 {fill:#4A422C}
    .fil8 {fill:#695D3D}
    .fil7 {fill:#7D6F4A}
    .fil12 {fill:#80724A}
    .fil5 {fill:#8C7E57}
    .fil6 {fill:#A39469}
    .fil10 {fill:#BFAD7C}
    .fil15 {fill:#D4C6A7}
    .fil14 {fill:#DED1B4}
    .fil13 {fill:#F0E4C8}
    .fil11 {fill:#4A422C;fill-rule:nonzero}
   ]]>
  </style>
 </defs>
  
  
  
  
  
   
   
   
   
   
   <path
   class="fil3"
   d="m 17071.249,13983.126 c 0,0 186,-430 44,-882 -142,-452 -385,-1005 -385,-1005 0,0 -49,-129 101,0 151,128 452,925 519,1357 66,433 -279,530 -279,530 z"
   id="path26"
   style="fill:#000000;stroke:none;stroke-opacity:1" />
   
   <path
   class="fil3"
   d="m 17374.249,9067.1259 c -13,-21 -63,-64 23,-297 94,-253 361,-1011 361,-1011 0,0 -15,-38 -74,0 -49,30 -1080,2370.0001 -1166,96 -12,-311 -26,-369 -107,-363 -81,6 -71,288 -24,576 46,278 277,844 335,999 z"
   id="path30"
   style="fill:#000000;stroke:none;stroke-opacity:1" />
   
   
  <path
   class="fil5"
   d="m 1253.2494,10849.126 c 334,442 985,780 1196,883 -239,-656 -405,-1320 -490,-1992.0001 -64,-513 -81,-1030 -46,-1553 -234,334 -523,797 -698,1269 -188,504 -244.99997,1019.0001 38,1393.0001 z"
   id="path36"
   style="fill:#789187;fill-opacity:1;stroke:none;stroke-opacity:1" />
  <path
   class="fil6"
   d="m 3677.2494,15817.126 z m 103,-401 c -55,28 -90,98 -108,172 -18,76 -18,157 -3,207 2,8 5,16 8,22 29,57 73,68 99,70 31,-43 56,-94 73,-154 17,-58 26,-124 27,-200 l -8,-2 c 0,0 4,-10 8,-24 -1,-29 -3,-60 -7,-93 -11,-12 -32,-16 -67,-6 -8,2 -15,5 -22,8 z"
   id="path38"
   style="fill:#6e96aa;fill-opacity:1;stroke:none;stroke-opacity:1" />
  <path
   class="fil6"
   d="m 3661.2494,15826.126 z m -7,-242 c 19,-79 57,-153 118,-184 8,-4 16,-7 24,-10 32,-9 54,-9 70,-4 -6,-47 -14,-92 -24,-134 -9,-4 -20,-5 -31,-4 -26,3 -56,21 -88,48 -33,27 -67,65 -99,108 -99,134 -177,321 -131,429 54,127 147,146 193,147 l 3,-3 c 27,-21 52,-45 74,-73 -30,-4 -73,-22 -102,-78 -4,-8 -7,-16 -10,-26 -15,-53 -15,-137 3,-216 z"
   id="path40"
   style="fill:#6e96aa;fill-opacity:1;stroke:none;stroke-opacity:1" />
  <path
   class="fil6"
   d="m 3809.2494,15230.126 z m -333,610 c -48,-115 31,-309 133,-447 33,-44 68,-83 102,-111 34,-30 68,-48 98,-52 9,-2 19,-1 27,1 -7,-30 -16,-58 -25,-84 -119,23 -288,135 -421,274 -73,75 -134,157 -171,237 -36,77 -49,151 -26,211 14,37 42,70 87,97 128,76 281,66 344,58 13,-9 26,-18 40,-28 -54,-7 -138,-38 -188,-156 z"
   id="path42"
   style="fill:#6e96aa;fill-opacity:1;stroke:none;stroke-opacity:1" />
  <path
   class="fil6"
   d="m 16813.249,11904.126 c 635,-1430 1034,-3663.0001 575,-5819.0001 -344,-1614 -1169,-3184 -2736,-4343 -104,-68 -211,-135 -318,-200 -2252,-1355.99999 -4612.9996,-1629.999991 -6516.9996,-1399.99999 -1888,228 -3325,947.99999 -3760,1594.99999 41,175 86,366 149,556 426,-219 896,-374 1404,-458 280,-46 572,-70 874,-70 660,-543 1462,-589 1922,219 77,18 433,109 789,312 314,180 508,347 577,411 356.9996,-645 1128.9996,-2030.99999 1186.9996,-2059.99999 664,-332 2494,1437.99999 2836,2054.99999 412,744 624,1515 590,1672 -35,159 -370,385 -630,540 306,-95 719,-213 784,-174 60,36 352,547 506,1443 87,501 133,1125 74,1856 -91,1140 -687,3514.0001 -1477,4575.0001 -93,126 -186,221 -244,221 -91,0 -479,-437 -673,-662 l 388,1233 -13,4 c -13,49 -127,183 -660,549 -305,209 -595,378 -837,504 -358,186 -618,281 -680,281 -73,0 -97,-48 -179,-207 -66,-129 -173,-339 -380,-672 -408.9996,-660 -1657.9996,-1631 -1811.9996,-1749 -67,7 -142,9 -222,0 -156,-17 -241,-63 -286,-106 -181,1148 -478,2314 -961,3207 51,-19 138,-36 282,-33 199,4 351,42 430,67 20,-504 27,-1075 39,-1186 1,4 127,1159 -27,1932 -5,22 -8,42 -12,61 -58,357 -3,727 200,1034 56,83 123,162 201,235 59,-97 224,-358 489,-712 77,-103 150,-174 219,-220 90,-61 172,-81 244,-78 73,4 135,33 184,70 40,30 72,65 94,98 55,81 100,159 126,207 65,-99 135,-176 205,-233 146,-119 295.9996,-153 402.9996,-121 94,28 203,156 301,328 24,41 46,84 68,128 58,-119 187,-356 331,-428 108,-54 253,-61 418,11 133,59 281,171 434,354 274,329 439,716 487,839 350,-118 638,-277 816,-481 351,-402 494,-916 483,-1443 -5,-244 -253,-1226 -492,-1735 177,261 321,560 418,875 129,-62 465,-268 995,-898 150,-178 520,-625 906,-1226 -1,1 -149,435 -853,1271 -545,646 -895,857 -1028,919 75,259 118,527 123,793 2,98 -1,195 -10,292 68,-48 179,-117 262,-117 70,1 148,36 214,118 54,66 101,163 131,299 51,227 40,454 32,547 39,-7 77,-14 115,-22 289,-59 557,-155 707,-297 278,-264 318,-628 362,-1014 12,-115 26,-232 45,-350 52,-310 138,-492 433,-1115 201,-425 501,-1058 955,-2082 z"
   id="path44"
   style="fill:#6e96aa;fill-opacity:1;stroke:none;stroke-opacity:1" />
  <path
   class="fil7"
   d="m 16813.249,11904.126 c 635,-1430 1034,-3663.0001 575,-5819.0001 -344,-1614 -1169,-3184 -2736,-4343 -104,-68 -211,-135 -318,-200 -1893,-1139.99999 -3863,-1514.999991 -5573.9996,-1468.999991 -658,447.000001 -732,1091.999991 -700,1498.999991 128,99 245,235 346,412 77,18 433,109 789,312 314,180 508,347 577,411 356.9996,-645 1128.9996,-2030.99999 1186.9996,-2059.99999 664,-332 2494,1437.99999 2836,2054.99999 412,744 624,1515 590,1672 -35,159 -370,385 -630,540 306,-95 719,-213 784,-174 60,36 352,547 506,1443 87,501 133,1125 74,1856 -91,1140 -687,3514.0001 -1477,4575.0001 -93,126 -186,221 -244,221 -91,0 -479,-437 -673,-662 l 388,1233 -13,4 c -13,49 -127,183 -660,549 -305,209 -595,378 -837,504 -358,186 -618,281 -680,281 -73,0 -97,-48 -179,-207 -66,-129 -173,-339 -380,-672 -408.9996,-660 -1657.9996,-1631 -1811.9996,-1749 -67,7 -142,9 -222,0 -156,-17 -241,-63 -286,-106 -181,1148 -478,2314 -961,3207 51,-19 138,-36 282,-33 199,4 351,42 430,67 20,-504 27,-1075 39,-1186 1,4 127,1159 -27,1932 -5,22 -8,42 -12,61 -58,357 -3,727 200,1034 56,83 123,162 201,235 59,-97 224,-358 489,-712 77,-103 150,-174 219,-220 90,-61 172,-81 244,-78 73,4 135,33 184,70 40,30 72,65 94,98 55,81 100,159 126,207 65,-99 135,-176 205,-233 146,-119 295.9996,-153 402.9996,-121 94,28 203,156 301,328 24,41 46,84 68,128 58,-119 187,-356 331,-428 108,-54 253,-61 418,11 133,59 281,171 434,354 274,329 439,716 487,839 350,-118 638,-277 816,-481 351,-402 494,-916 483,-1443 -5,-244 -253,-1226 -492,-1735 177,261 321,560 418,875 129,-62 465,-268 995,-898 150,-178 520,-625 906,-1226 -1,1 -149,435 -853,1271 -545,646 -895,857 -1028,919 75,259 118,527 123,793 2,98 -1,195 -10,292 68,-48 179,-117 262,-117 70,1 148,36 214,118 54,66 101,163 131,299 51,227 40,454 32,547 39,-7 77,-14 115,-22 289,-59 557,-155 707,-297 278,-264 318,-628 362,-1014 12,-115 26,-232 45,-350 52,-310 138,-492 433,-1115 201,-425 501,-1058 955,-2082 z"
   id="path46"
   style="fill:#6e96aa;fill-opacity:1;stroke:none;stroke-opacity:1" />
  <path
   class="fil8"
   d="m 10273.249,13731.126 c -477.9996,-651 -1576.9996,-1505 -1720.9996,-1615 -67,7 -142,9 -222,0 -156,-17 -241,-63 -286,-106 -181,1148 -478,2314 -961,3207 51,-19 138,-36 282,-33 199,4 351,42 430,67 20,-504 27,-1075 39,-1186 0,2 43,392 49,869 93,-153 436,-647 1182,-1004 655,-314 1045.9996,-254 1207.9996,-199 z"
   id="path48"
   style="fill:#6e96aa;fill-opacity:1;stroke:none;stroke-opacity:1" />
  <path
   class="fil6"
   d="m 10779.249,6382.1259 c 397,419 607,946 621,1559 14,611 -169,1307 -558,2065.0001 155,254 302,557 411,869 213,606 287,1244 12,1616 -11,15 -22,29 -34,42 -66,77 -143,135 -230,178 -303,147 -714,98 -1110.9996,-42 -392,-139 -772,-367 -1016,-577 -18,-15 -35,-31 -51,-46 -33,14 -94,37 -174,54 101,78 1349,1043 1773.9996,1728 208,334 316,547 383,677 66,131 86,170 117,170 54,0 300,-93 648,-274 241,-125 528,-292 830,-500 643,-441 675,-451 676,-451 l -23,-2 -7,-22 -439,-1396 -53,-166 112,134 c 2,2 641,767 731,767 33,0 107,-83 188,-192 782,-1050 1374,-3410.0001 1464,-4539.0001 58,-725 13,-1343 -73,-1839 -151,-874 -420,-1363 -474,-1396 -75,-45 -1060,289 -1063,290 l -445,150 418,-214 c 3,-1 854,-435 904,-666 32,-147 -178,-893 -583,-1623 -326,-590 -2131,-2333.99999 -2744,-2026.99999 -138,105 -1039.9996,1955.99999 -1395.9996,2320.99999 1,-1 56,-101 144,-260 -51,-49 -244,-223 -578,-414 -392,-224 -783,-307 -784,-308 l -15,-3 -8,-14 c -424,-780 -1143,-763 -1762,-266 185,3 373,15 565,36 -371,10 -997,40 -1176,56 -122,12 -241,27 -359,47 -1086,178 -1999,692 -2671,1456 -673,765 -1107,1782 -1234,2964 -66,609 -51,1262 54,1948 54,-80 105,-154 153,-221 47,-561 154,-1128 326,-1702 -22,11 -45,17 -69,17 -110,0 -199,-124 -199,-277 0,-28 3,-55 8,-80 14,47 45,80 80,80 49,0 89,-62 89,-139 0,-52 -19,-98 -46,-122 21,-11 44,-17 68,-17 84,0 156,74 185,177 13,-36 25,-72 38,-107 -8,-74 -18,-128 -85,-254 -21,-38 -48,-65 -79,-80 -32,-16 -68,-20 -104,-13 -37,8 -74,28 -107,61 -47,47 -86,118 -105,215 -59,288 43,497 60,529 9,3 18,5 25,8 55,20 170,128 172,193 -51,-80 -114,-129 -186,-154 -73,-26 -155,-29 -243,-17 53,-39 120,-46 176,-40 -34,-78 -101,-275 -50,-528 22,-107 66,-186 119,-239 39,-39 84,-63 129,-73 47,-9 93,-4 134,16 40,20 74,53 99,100 40,75 59,151 66,217 82,-222 173,-446 275,-671 -72,295 -272,861 -324,1019 -396,1217 -494,2402 -347,3561 183,1459.0001 756,2877.0001 1618,4265.0001 l 16,24 c 103,24 203,65 300,121 443,-144 886,-217 1326,-211 429,6 856,88 1276,253 -717,-156 -826,-177 -1279,-184 -411,-5 -826,62 -1242,193 69,47 136,103 200,167 199,-2 388,25 566,85 268,89 512,249 727,489 -404,-288 -466,-330 -748,-424 -115,-38 -235,-63 -359,-74 226,100 420,232 577,397 195,205 335,461 412,773 -221,-444 -257,-510 -462,-725 -164,-173 -370,-307 -612,-406 350,469 406,1322 406,1325 -155,-522 -134,-961 -539,-1374 0,-1 -1,-1 -2,-1 l 1,-1 c -1,0 -1,-1 -1,-1 -205,-208 -437,-328 -677,-353 -236,-25 -481,43 -719,208 -110,77 -201,210 -270,374 -74,178 -121,392 -137,611 -35,476 101,881 360,1184 269,315 669,520 1148,582 258,33 554,16 896,-79 343,-96 731,-270 1170,-553 1816,-1173 2191,-5175 2259,-7328.0001 5,-157 37,-903 75,-1401 1,11 76,2084 -256,4251.0001 h 3 c 0,0 17,101 276,130 195,21 355,-25 431,-54 -23,-25 -45,-48 -64,-71 -305,-236 58,-1350 112,-1490 145,-372 390,-687.0001 701,-875.0001 185,-112 685.9996,-256 1005.9996,-40 -22,-6 -44,-11 -67,-16 64,61 130,137 197,226 -58,-344 -203,-667 -434,-951 -223.9996,-276 -801.9996,-721 -1029.9996,-832 462,199 824.9996,469 1083.9996,789 267,328 424,708 466,1113 20,30 40,60 60,91 371,-734 545,-1406 532,-1996 6,-261 -160,-1137 -552,-1560 z m -1455.9996,-1128 c 66,39 125,92 170,158 71,106 108,239 102,384 -5,135 -47,282 -132,428 65,11 123,32 152,63 -153,-44 -287,-36 -406,11 -121,48 -228,135 -327,249 38,-170 207,-276 301,-313 48,-19 141,-26 230,-17 82,-139 131,-295 136,-423 6,-135 -28,-258 -95,-356 -40,-60 -94,-109 -154,-145 -95,-56 -206,-84 -317,-82 -375,7 -483,247 -583,555 0,-47 7,-109 25,-176 72,-262 282,-420 557,-425 119,-2 240,28 341,89 z m -4423,637 c 194,19 373,44 518,73 148,30 263,65 326,104 57,34 80,73 64,118 -14,-149 -499,-207 -916,-248 -203,-20 -417,-11 -633,-17 -220,-7 -1034,-39 -1309,151 69,-231 1143,-259 1950,-181 z m 3865,-85 c 0,116 94,211 211,211 48,0 93,-17 129,-44 1,14 2,29 2,44 0,189 -153,342 -342,342 -189,0 -342,-153 -342,-342 0,-189 153,-343 342,-343 15,0 30,1 44,3 -27,36 -44,81 -44,129 z m -6347,2118 c 636,-183 1277,-260 1922,-247 645,14 1294,119 1945,300 -1387,-238 -1701,-225 -1946,-230 -241,-6 -1236,8 -1921,177 z m 8331.9996,-1571 c 10,9 20,19 29,29 -9,-10 -19,-20 -29,-29 z M 4834.2494,11079.126 c 643,-38 1298,15 1962,143 -1401,-126 -1713,-88 -1958,-74 -241,15 -1232,108 -1900,332 619,-234 1252,-363 1896,-401 z m -1096,2187 c 69,-235 1144,-321 1951,-286 194,8 372,23 517,45 148,21 263,50 327,85 56,31 79,69 63,115 -13,-149 -499,-180 -916,-198 -203,-9 -417,11 -633,17 -219,5 -1034,18 -1309,222 z m -1207,-3403.0001 c 743,-234 1501,-362 2273,-401 771,-38 1556,15 2352,143 -1680,-126 -2054,-88 -2347,-74 -289,15 -1476,108 -2278,332 z m 155,-5030 c 88,79 52,267 -171,317 -222,49 -469,-36 -469,-36 0,2 51,-115 175,-229 124,-115 377,-131 465,-52 z m 2296,-575 c 342,33 682,156 1019,356 -725,-278 -893,-274 -1024,-287 -128,-12 -658,-27 -1032,123 349,-165 694,-224 1037,-192 z m 4082,289 c 0,0 -321,111 -610,47 -289,-65 -336,-310 -222,-412 114,-102 443,-81 604,67 162,149 228,301 228,298 z m -5128,10838.0001 c 18,145 9,266 -20,367 -36,124 -102,216 -184,280 -82,64 -179,99 -277,111 -89,11 -179,3 -259,-20 96,2 201,13 335,-48 -79,-1 -183,-15 -275,-69 -54,-33 -88,-74 -106,-121 -28,-73 -14,-159 27,-246 39,-85 104,-172 179,-250 137,-142 310,-257 439,-286 -176,-441 -567,-508 -581,-538 1,0 639,156 722,820 z"
   id="path50"
   style="fill:#789187;fill-opacity:1;stroke:none;stroke-opacity:1" />
  <path
   class="fil5"
   d="m 10779.249,6382.1259 c 397,419 607,946 621,1559 14,611 -169,1307 -558,2065.0001 155,254 302,557 411,869 213,606 287,1244 12,1616 -11,15 -22,29 -34,42 -66,77 -143,135 -230,178 -303,147 -714,98 -1110.9996,-42 -392,-139 -772,-367 -1016,-577 -18,-15 -35,-31 -51,-46 -33,14 -94,37 -174,54 101,78 1349,1043 1773.9996,1728 208,334 316,547 383,677 66,131 86,170 117,170 54,0 300,-93 648,-274 241,-125 528,-292 830,-500 643,-441 675,-451 676,-451 l -23,-2 -7,-22 -439,-1396 -53,-166 112,134 c 2,2 641,767 731,767 33,0 107,-83 188,-192 782,-1050 1374,-3410.0001 1464,-4539.0001 58,-725 13,-1343 -73,-1839 -151,-874 -420,-1363 -474,-1396 -75,-45 -1060,289 -1063,290 l -445,150 418,-214 c 3,-1 854,-435 904,-666 32,-147 -178,-893 -583,-1623 -326,-590 -2131,-2333.99999 -2744,-2026.99999 -138,105 -1039.9996,1955.99999 -1395.9996,2320.99999 1,-1 56,-101 144,-260 -51,-49 -244,-223 -578,-414 -392,-224 -783,-307 -784,-308 l -15,-3 -8,-14 c -84,-155 -180,-279 -285,-373 22,181 61,297 61,297 0,0 -176,-370 -466,-516 -115,-28 -235,-31 -356,-13 -102,153 397,648 397,648 0,0 -908,-309 -2168,626 -487,361 -861,889 -1124,1591 191,-41 381,-50 570,-33 342,33 682,156 1019,356 -725,-278 -893,-274 -1024,-287 -81,-7 -323,-16 -584,16 -159,437 -276,940 -351,1509 284,-1 586,13 858,39 194,19 373,44 518,73 148,30 263,65 326,104 57,34 80,73 64,118 -14,-149 -499,-207 -916,-248 -203,-20 -417,-11 -633,-17 -49,-2 -129,-5 -225,-6 -67,531 -98,1120 -95,1766 134,-5 268,-6 401,-4 645,14 1294,119 1945,300 -1387,-238 -1701,-225 -1946,-230 -73,-2 -216,-2 -399,4 4,385 19,791 48,1217 12,191 25,379 37,565 258,-34 517,-58 779,-71 771,-38 1556,15 2352,143 -1680,-126 -2054,-88 -2347,-74 -126,7 -421,28 -780,68 36,549.0001 70,1072.0001 101,1560.0001 233,-40 468,-66 704,-80 643,-38 1298,15 1962,143 -1401,-126 -1713,-88 -1958,-74 -111,7 -380,30 -704,75 44,691 83,1309 115,1826 400,-69 966,-90 1440,-69 194,8 372,23 517,45 148,21 263,50 327,85 56,31 79,69 63,115 -13,-149 -499,-180 -916,-198 -203,-9 -417,11 -633,17 -132,3 -479,9 -795,58 23,370 42,687 58,941 326,-78 653,-117 978,-113 429,6 856,88 1276,253 -717,-156 -826,-177 -1279,-184 -322,-4 -646,36 -971,117 l 15,244 c 167,5 328,33 480,84 268,89 512,249 727,489 -404,-288 -466,-330 -748,-424 -115,-38 -235,-63 -359,-74 226,100 420,232 577,397 195,205 335,461 412,773 -221,-444 -257,-510 -462,-725 -164,-173 -370,-307 -612,-406 350,469 406,1322 406,1325 -136,-458 -137,-853 -408,-1221 6,108 10,166 10,166 0,0 -614,-675 -890,-386 -80,83 -80,186 -41,291 195,105 463,321 515,736 18,145 9,266 -20,367 -36,124 -102,216 -184,280 -82,64 -179,99 -277,111 -89,11 -179,3 -259,-20 96,2 201,13 335,-48 -79,-1 -183,-15 -275,-69 -54,-33 -88,-74 -106,-121 -28,-73 -14,-159 27,-246 39,-85 104,-172 179,-250 45,-47 94,-91 145,-130 -294,73 -716,207 -1078,432 46,293 166,548 343,755 269,315 669,520 1148,582 258,33 554,16 896,-79 343,-96 731,-270 1170,-553 1816,-1173 2191,-5175 2259,-7328.0001 5,-157 37,-903 75,-1401 1,11 76,2084 -256,4251.0001 h 3 c 0,0 17,101 276,130 195,21 355,-25 431,-54 -23,-25 -45,-48 -64,-71 -305,-236 58,-1350 112,-1490 145,-372 390,-687.0001 701,-875.0001 185,-112 685.9996,-256 1005.9996,-40 -22,-6 -44,-11 -67,-16 64,61 130,137 197,226 -58,-344 -203,-667 -434,-951 -223.9996,-276 -801.9996,-721 -1029.9996,-832 462,199 824.9996,469 1083.9996,789 267,328 424,708 466,1113 20,30 40,60 60,91 371,-734 545,-1406 532,-1996 6,-261 -160,-1137 -552,-1560 z M 3777.2494,15107.126 c -105,-95 -275,-266 -347,-436 124,75 273,203 365,432 -6,1 -12,3 -18,4 z m 5546,-9853.0001 c 66,39 125,92 170,158 71,106 108,239 102,384 -5,135 -47,282 -132,428 65,11 123,32 152,63 -153,-44 -287,-36 -406,11 -121,48 -228,135 -327,249 38,-170 207,-276 301,-313 48,-19 141,-26 230,-17 82,-139 131,-295 136,-423 6,-135 -28,-258 -95,-356 -40,-60 -94,-109 -154,-145 -95,-56 -206,-84 -317,-82 -375,7 -483,247 -583,555 0,-47 7,-109 25,-176 72,-262 282,-420 557,-425 119,-2 240,28 341,89 z m -558,552 c 0,116 94,211 211,211 48,0 93,-17 129,-44 1,14 2,29 2,44 0,189 -153,342 -342,342 -189,0 -342,-153 -342,-342 0,-189 153,-343 342,-343 15,0 30,1 44,3 -27,36 -44,81 -44,129 z m 1984.9996,547 c 10,9 20,19 29,29 -9,-10 -19,-20 -29,-29 z m -1685.9996,-1806 c 0,0 -321,111 -610,47 -289,-65 -336,-310 -222,-412 114,-102 443,-81 604,67 162,149 228,301 228,298 z"
   id="path52"
   style="fill:#41645a;fill-opacity:1;stroke:none;stroke-opacity:1" />
  <path
   class="fil6"
   d="m 10627.249,14172.126 c 83,146 139,255 179,333 66,131 86,170 117,170 54,0 300,-93 648,-274 241,-125 528,-292 830,-500 643,-441 675,-451 676,-451 l -23,-2 -7,-22 -439,-1396 -53,-166 112,134 c 2,2 641,767 731,767 33,0 107,-83 188,-192 782,-1050 1374,-3410.0001 1464,-4539.0001 58,-725 13,-1343 -73,-1839 -151,-874 -420,-1363 -474,-1396 -75,-45 -1060,289 -1063,290 l -445,150 418,-214 c 3,-1 854,-435 904,-666 32,-147 -178,-893 -583,-1623 -326,-590 -2131,-2333.99999 -2744,-2026.99999 -88,67 -488,845.99999 -858,1494.99999 401,-386 1050,-968 1269,-911 325,85 2167,2001 2096,2826 -70,825 -1656,1576 -1656,1576 l 2362,-210 c 0,0 142,0 142,2182 0,2183 -1061,4163.0001 -1061,4163.0001 l -1151,-848 c 0,0 201,2062 0,2359 -136,201 -941,597 -1506,831 z"
   id="path54"
   style="fill:#789187;fill-opacity:1;stroke:none;stroke-opacity:1" />
  <path
   class="fil9"
   d="m 8941.2494,6419.1259 c -65,5 -221,7 -350,-66 -52,-30 -97,-96 -131,-182 56,112 172,188 305,188 189,0 342,-153 342,-342 0,-15 -1,-30 -2,-44 -36,27 -81,44 -129,44 -117,0 -211,-95 -211,-211 0,-48 17,-93 44,-129 -14,-2 -29,-3 -44,-3 -189,0 -342,154 -342,343 0,18 1,36 4,53 -25,-98 -36,-208 -27,-310 v 6 c 100,-308 208,-548 583,-555 111,-2 222,26 317,82 60,36 114,85 154,145 67,98 101,221 95,356 -5,128 -54,284 -136,423 -89,-9 -182,-2 -230,17 -68,27 -174,89 -242,185 z"
   id="path56"
   style="fill:#cccccc;stroke:none;stroke-opacity:1" />
  <path
   class="fil9"
   d="m 2209.2494,6485.1259 c 13,-45 26,-91 40,-136 -22,11 -45,17 -69,17 -110,0 -199,-124 -199,-277 0,-28 3,-55 8,-80 14,47 45,80 80,80 49,0 89,-62 89,-139 0,-52 -19,-98 -46,-122 21,-11 44,-17 68,-17 84,0 156,74 185,177 13,-36 25,-72 38,-107 -8,-74 -18,-128 -85,-254 -21,-38 -48,-65 -79,-80 -32,-16 -68,-20 -104,-13 -37,8 -74,28 -107,61 -47,47 -86,118 -105,215 -59,288 43,497 60,529 9,3 18,5 25,8 44,16 124,86 157,147 11,1 28,-2 44,-9 z"
   id="path58"
   style="fill:#cccccc;stroke:none;stroke-opacity:1" />
  <path
   class="fil10"
   d="m 2898.2494,3315.1259 c 356,-405 778,-741 1257,-995 l -11,4 c -70,-208 -117,-411 -160,-595 -60,-256 -111,-473 -195,-595 -87,-126 -218,-144.99999 -457,15 v 488 l -62,-87 -189,-262 c -176,91 -1256,727 -2306.99997,3179 -1077,2511 -617,4505 -554,4749 131,1 708,5 765,0 h 10 c 53.99997,-4 53.99997,-3 98.99997,-6 -148.99997,190 -673.99997,671 -740.99997,734 -1,48 4,235.0001 113,656.0001 99,378 279,966 361,1230 86,-522 240.99997,-1107 250.99997,-1146 -157.99997,-367 -90.99997,-814.0001 72,-1252.0001 139,-374 360,-760 564,-1074 -117,-719 -136,-1404 -67,-2041 129,-1197 568,-2227 1251,-3002 z"
   id="path60"
   style="fill:#789187;fill-opacity:1;stroke:none;stroke-opacity:1" />
  <path
   class="fil10"
   d="m 2670.2494,12288.126 c -94,68 -432,305 -760,467 -67,34 -141,62 -218,84 97,142 195,271 294,389 101,120 202,230 304,331 85,-112 276,-361 379,-488 99,-123 186,-245 222,-297 -78,-161 -152,-323 -221,-486 z"
   id="path62"
   style="fill:#789187;fill-opacity:1;stroke:none;stroke-opacity:1" />
  <path
   class="fil11"
   d="m 8765.2494,5674.1259 c 15,0 30,1 44,3 -27,36 -44,81 -44,129 0,116 94,211 211,211 48,0 93,-17 129,-44 1,14 2,29 2,44 0,189 -153,342 -342,342 -189,0 -342,-153 -342,-342 0,-189 153,-343 342,-343 z"
   id="path64"
   style="fill:#000000;stroke:none;stroke-opacity:1" />
  <path
   class="fil11"
   d="m 9183.2494,6234.1259 c 93,-37 357,-27 432,53 -153,-44 -287,-36 -406,11 -121,48 -228,135 -327,249 38,-170 207,-276 301,-313 z"
   id="path66"
   style="fill:#000000;stroke:none;stroke-opacity:1" />
  <path
   class="fil11"
   d="m 8400.2494,5766.1259 c 0,-47 7,-109 25,-176 72,-262 282,-420 557,-425 119,-2 240,28 341,89 66,39 125,92 170,158 71,106 108,239 102,384 -5,136 -47,283 -133,429 l -49,-6 c 81,-140 131,-296 136,-425 6,-135 -28,-258 -95,-356 -40,-60 -94,-109 -154,-145 -95,-56 -206,-84 -317,-82 -375,7 -483,247 -583,555 z"
   id="path68"
   style="fill:#000000;stroke:none;stroke-opacity:1" />
  <path
   class="fil11"
   d="m 9064.2494,4547.1259 c 0,0 -321,111 -610,47 -289,-65 -336,-310 -222,-412 114,-102 443,-81 604,67 162,149 228,301 228,298 z"
   id="path70"
   style="fill:#000000;stroke:none;stroke-opacity:1" />
  <path
   class="fil11"
   d="m 2046.2494,5114.1259 c 0,0 247,85 469,36 223,-50 259,-238 171,-317 -88,-79 -341,-63 -465,52 -124,114 -175,231 -175,229 z"
   id="path72"
   style="fill:#000000;stroke:none;stroke-opacity:1" />
  <path
   class="fil11"
   d="m 2008.2494,6347.1259 c 55,20 170,128 172,193 -51,-80 -114,-129 -186,-154 -73,-26 -155,-29 -243,-17 83,-61 200,-43 257,-22 z"
   id="path74"
   style="fill:#000000;stroke:none;stroke-opacity:1" />
  <path
   class="fil11"
   d="m 1945.2494,6366.1259 c 0,-1 -135,-235 -68,-565 22,-107 66,-186 119,-239 39,-39 84,-63 129,-73 47,-9 93,-4 134,16 40,20 74,53 99,100 105,197 62,404 61,405 -28,-168 -2,-197 -101,-383 -21,-38 -48,-65 -79,-80 -32,-16 -68,-20 -104,-13 -37,8 -74,28 -107,61 -47,47 -86,118 -105,215 -64,314 62,533 62,534 z"
   id="path76"
   style="fill:#000000;stroke:none;stroke-opacity:1" />
  <path
   class="fil11"
   d="m 2180.2494,5811.1259 c 110,0 199,125 199,278 0,153 -89,277 -199,277 -110,0 -199,-124 -199,-277 0,-28 3,-55 8,-80 14,47 45,80 80,80 49,0 89,-62 89,-139 0,-52 -19,-98 -46,-122 21,-11 44,-17 68,-17 z"
   id="path78"
   style="fill:#000000;stroke:none;stroke-opacity:1" />
  <path
   class="fil11"
   d="m 3611.2494,14069.126 c -881,-1407 -1466,-2847 -1652,-4329.0001 -186,-1484 26,-3010 740,-4589 -72,295 -272,861 -324,1019 -396,1217 -494,2402 -347,3561 183,1459.0001 756,2877.0001 1618,4265.0001 8,12 38,61 46,73 z"
   id="path80"
   style="fill:#000000;stroke:none;stroke-opacity:1" />
  <path
   class="fil11"
   d="m 1717.2494,8373.1259 c -120,-725 -139,-1415 -70,-2056 129,-1197 568,-2227 1251,-3002 683,-777 1609,-1298 2712,-1480 483,-79 1000,-93 1546,-34 -371,10 -997,40 -1176,56 -122,12 -241,27 -359,47 -1086,178 -1999,692 -2671,1456 -673,765 -1107,1782 -1234,2964 -69,636 -49,1319 69,2038 z"
   id="path82"
   style="fill:#000000;stroke:none;stroke-opacity:1" />
  <path
   class="fil11"
   d="m 6458.2494,1786.1259 c 665,-563 1482,-621 1948,198 77,18 433,109 789,312 400,229 605,438 606,438 l -49,49 c -1,-1 -199,-202 -592,-427 -392,-224 -783,-307 -784,-308 l -15,-3 -8,-14 c -434,-800 -1179,-761 -1808,-228 z"
   id="path84"
   style="fill:#000000;stroke:none;stroke-opacity:1" />
  <path
   class="fil11"
   d="m 2489.2494,11827.126 c -3,-1 -878,-390 -1291,-936 -299.99997,-397 -242.99997,-935.0001 -48,-1459.0001 192,-519 543,-1061 788,-1401 l 31,76 c -242,338 -565,838 -754,1349 -188,504 -244.99997,1019.0001 38,1393.0001 402,532 1262,914 1264,915 z"
   id="path86"
   style="fill:#000000;stroke:none;stroke-opacity:1" />
  <path
   class="fil11"
   d="m 1145.2494,10700.126 c -1,4 -381.99997,1433 -292.99997,1827 7,29 16,55 28,80 53,106 156.99997,169 283.99997,197 132,29 288,21 438,-13 98,-22 193,-56 278,-98 380,-188 773,-478 774,-479 l 41,56 c -1,1 -399,295 -785,485 -89,44 -189,80 -293,103 -159,36 -326,45 -467,13 -147,-32 -268.99997,-106 -331.99997,-234 -14,-29 -25,-60 -33,-94 -94,-412 291.99997,-1857 292.99997,-1861 z"
   id="path88"
   style="fill:#000000;stroke:none;stroke-opacity:1" />
  <path
   class="fil11"
   d="m 2270.2494,13637.126 c -113,-111 -226,-231 -337,-365 -112,-133 -222,-280 -332,-444 l 58,-38 c 108,161 217,306 327,438 110,132 221,250 333,359 z"
   id="path90"
   style="fill:#000000;stroke:none;stroke-opacity:1" />
  <path
   class="fil11"
   d="m 804.24943,11987.126 c -1,-2 -273,-867 -404,-1370 -133,-508 -116,-691.0001 -116,-691.0001 l 1,-14 10,-9 c 2,-1 488,-517 671,-685 83.99997,-6 75.99997,-4 127.99997,-8 -148.99997,190 -673.99997,671 -740.99997,734 -1,48 4,235.0001 113,656.0001 131,499 403,1364 404,1367 z m 187,-2702.0001 -1,-12 c -2,4 -5,8 -8,12 -105,5 -787,0 -789,0 h -26 l -7,-25 c -2,-7 -608,-2120 550,-4820 1158.99997,-2701 2363.99997,-3225 2367.99997,-3227 l 25,-12 17,23 143,199 v -310 l 15,-11 c 290,-199.99999 454,-171.99999 568,-7 91,132 144,355 205,618 43,184 91,387 158,589 l -65,22 c -70,-208 -117,-411 -160,-595 -60,-256 -111,-473 -195,-595 -87,-126 -218,-144.99999 -457,15 v 488 l -62,-87 -189,-262 c -176,91 -1256,727 -2306.99997,3179 -1077,2511 -617,4505 -554,4749 131,1 708,5 765,0 28.99997,-3 26.99997,19 5,57 l 1,12 h -9 z"
   id="path92"
   style="fill:#000000;stroke:none;stroke-opacity:1" />
  <path
   class="fil11"
   d="m 4209.2494,14422.126 c -205,-208 -437,-328 -677,-353 -236,-25 -481,43 -719,208 -110,77 -201,210 -270,374 -74,178 -121,392 -137,611 -35,476 101,881 360,1184 269,315 669,520 1148,582 258,33 554,16 896,-79 343,-96 731,-270 1170,-553 1816,-1173 2191,-5175 2259,-7328.0001 5,-157 37,-903 75,-1401 1,21 258,7140.0001 -2297,8787.0001 -445,287 -839,464 -1189,561 -351,98 -656,115 -922,81 -497,-63 -913,-277 -1192,-605 -271,-317 -413,-739 -377,-1234 16,-226 65,-448 142,-633 73,-175 173,-318 295,-403 251,-176 513,-247 765,-221 256,26 503,153 719,374 427,434 492,1422 492,1425 -155,-523 -134,-963 -541,-1377 z"
   id="path94"
   style="fill:#000000;stroke:none;stroke-opacity:1" />
  <path
   class="fil11"
   d="m 3214.2494,14565.126 c 1,0 639,156 722,820 18,145 9,266 -20,367 -36,124 -102,216 -184,280 -82,64 -179,99 -277,111 -89,11 -179,3 -259,-20 132,2 278,22 493,-146 71,-55 129,-135 160,-244 27,-92 35,-204 18,-340 -88,-705 -636,-793 -653,-828 z"
   id="path96"
   style="fill:#000000;stroke:none;stroke-opacity:1" />
  <path
   class="fil11"
   d="m 3663.2494,16064.126 c -1,0 -226,49 -407,-58 -54,-33 -88,-74 -106,-121 -28,-73 -14,-159 27,-246 39,-85 104,-172 179,-250 149,-155 343,-279 473,-292 l 5,46 c -120,12 -302,130 -444,278 -73,75 -134,157 -171,237 -36,77 -49,151 -26,211 14,37 42,70 87,97 165,98 373,53 374,53 z"
   id="path98"
   style="fill:#000000;stroke:none;stroke-opacity:1" />
  <path
   class="fil11"
   d="m 3716.2494,15997.126 c -1,0 -161,28 -240,-157 -48,-115 31,-309 133,-447 33,-44 68,-83 102,-111 34,-30 68,-48 98,-52 27,-4 51,5 68,29 l -15,10 c -13,-17 -30,-24 -51,-21 -26,3 -56,21 -88,48 -33,27 -67,65 -99,108 -99,134 -177,321 -131,429 73,172 219,145 219,145 z"
   id="path100"
   style="fill:#000000;stroke:none;stroke-opacity:1" />
  <path
   class="fil11"
   d="m 3801.2494,15904.126 c 0,0 -91,19 -140,-78 -4,-8 -7,-16 -10,-26 -15,-53 -15,-137 3,-216 19,-79 57,-153 118,-184 8,-4 16,-7 24,-10 164,-48 90,147 90,147 l -18,-6 c 0,-1 62,-160 -66,-123 -8,2 -15,5 -22,8 -55,28 -90,98 -108,172 -18,76 -18,157 -3,207 2,8 5,16 8,22 43,85 120,69 120,69 z"
   id="path102"
   style="fill:#000000;stroke:none;stroke-opacity:1" />
  <path
   class="fil11"
   d="m 4231.2494,14358.126 c 312,106 573,262 775,474 195,205 335,461 412,773 -221,-444 -257,-510 -462,-725 -194,-204 -445,-354 -747,-456 z"
   id="path104"
   style="fill:#000000;stroke:none;stroke-opacity:1" />
  <path
   class="fil11"
   d="m 4198.2494,14359.126 c 215,-6 420,21 611,85 268,89 512,249 727,489 -404,-288 -466,-330 -748,-424 -166,-55 -342,-82 -527,-81 z"
   id="path106"
   style="fill:#000000;stroke:none;stroke-opacity:1" />
  <path
   class="fil11"
   d="m 3945.2494,14147.126 c 449,-148 897,-223 1343,-217 430,6 856,88 1276,253 -717,-156 -826,-177 -1279,-184 -428,-5 -859,67 -1293,209 z"
   id="path108"
   style="fill:#000000;stroke:none;stroke-opacity:1" />
  <path
   class="fil11"
   d="m 3738.2494,13266.126 c 69,-235 1144,-321 1951,-286 194,8 372,23 517,45 148,21 263,50 327,85 56,31 79,69 63,115 -13,-149 -499,-180 -916,-198 -203,-9 -417,11 -633,17 -219,5 -1034,18 -1309,222 z"
   id="path110"
   style="fill:#000000;stroke:none;stroke-opacity:1" />
  <path
   class="fil11"
   d="m 2938.2494,11480.126 c 619,-234 1252,-363 1896,-401 643,-38 1298,15 1962,143 -1401,-126 -1713,-88 -1958,-74 -241,15 -1232,108 -1900,332 z"
   id="path112"
   style="fill:#000000;stroke:none;stroke-opacity:1" />
  <path
   class="fil11"
   d="m 2531.2494,9863.1259 c 743,-234 1501,-362 2273,-401 771,-38 1556,15 2352,143 -1680,-126 -2054,-88 -2347,-74 -289,15 -1476,108 -2278,332 z"
   id="path114"
   style="fill:#000000;stroke:none;stroke-opacity:1" />
  <path
   class="fil11"
   d="m 2418.2494,7924.1259 c 636,-183 1277,-260 1922,-247 645,14 1294,119 1945,300 -1387,-238 -1701,-225 -1946,-230 -241,-6 -1236,8 -1921,177 z"
   id="path116"
   style="fill:#000000;stroke:none;stroke-opacity:1" />
  <path
   class="fil11"
   d="m 2950.2494,6072.1259 c 69,-231 1143,-259 1950,-181 194,19 373,44 518,73 148,30 263,65 326,104 57,34 80,73 64,118 -14,-149 -499,-207 -916,-248 -203,-20 -417,-11 -633,-17 -220,-7 -1034,-39 -1309,151 z"
   id="path118"
   style="fill:#000000;stroke:none;stroke-opacity:1" />
  <path
   class="fil11"
   d="m 3945.2494,4450.1259 c 349,-165 694,-224 1037,-192 342,33 682,156 1019,356 -725,-278 -893,-274 -1024,-287 -128,-12 -658,-27 -1032,123 z"
   id="path120"
   style="fill:#000000;stroke:none;stroke-opacity:1" />
  <path
   class="fil11"
   d="m 8061.2494,11918.126 c 0,0 17,101 276,130 275,30 480,-75 481,-75 l 31,61 c -1,1 -224,115 -519,82 -310,-34 -337,-184 -337,-184 z"
   id="path122"
   style="fill:#000000;stroke:none;stroke-opacity:1" />
  <path
   class="fil11"
   d="m 9189.2494,7945.1259 c 462,199 824.9996,469 1083.9996,789 270,332 427,716 468,1126 l -69,7 c -39,-397 -192,-768 -453,-1090 -223.9996,-276 -801.9996,-721 -1029.9996,-832 z"
   id="path124"
   style="fill:#000000;stroke:none;stroke-opacity:1" />
  <path
   class="fil11"
   d="m 8683.2494,11769.126 c 38,78 121,172 236,271 239,205 610,428 994,563 380.9996,135 772.9996,184 1057.9996,45 78,-38 149,-91 208,-160 11,-12 21,-25 30,-38 260,-350 185,-966 -21,-1552 -208,-590 -549,-1149.0001 -820,-1383.0001 -16,-13 -31,-26 -47,-37 l 70,-17 c 17,12 5,-13 22,2 279,240 629,811.0001 840,1412.0001 213,606 287,1244 12,1616 -11,15 -22,29 -34,42 -66,77 -143,135 -230,178 -303,147 -714,98 -1110.9996,-42 -392,-139 -772,-367 -1016,-577 -122,-105 -211,-207 -253,-292 z"
   id="path126"
   style="fill:#000000;stroke:none;stroke-opacity:1" />
  <path
   class="fil11"
   d="m 8816.2494,10433.126 c 145,-372 390,-687.0001 701,-875.0001 185,-112 685.9996,-256 1005.9996,-40 -348,-89 -701.9996,-62 -970.9996,99 -297,180 -532,483.0001 -671,841.0001 -334,859 -170,1453 -175,1466 -308,-232 55,-1350 110,-1491 z"
   id="path128"
   style="fill:#000000;stroke:none;stroke-opacity:1" />
  <path
   class="fil11"
   d="m 8642.2494,12095.126 c 4,3 1338,1019 1780.9996,1733 208,334 316,547 383,677 66,131 86,170 117,170 54,0 300,-93 648,-274 241,-125 528,-292 830,-500 643,-441 675,-451 676,-451 l -23,-2 -7,-22 -439,-1396 -53,-166 112,134 c 2,2 641,767 731,767 33,0 107,-83 188,-192 782,-1050 1374,-3410.0001 1464,-4539.0001 58,-725 13,-1343 -73,-1839 -151,-874 -420,-1363 -474,-1396 -75,-45 -1060,289 -1063,290 l -445,150 418,-214 c 3,-1 854,-435 904,-666 32,-147 -178,-893 -583,-1623 -326,-590 -2131,-2333.99999 -2744,-2026.99999 -138,105 -1039.9996,1955.99999 -1395.9996,2320.99999 4,-6 1288.9996,-2344.99999 1364.9996,-2382.99999 664,-332 2494,1437.99999 2836,2054.99999 412,744 624,1515 590,1672 -35,159 -370,385 -630,540 306,-95 719,-213 784,-174 60,36 352,547 506,1443 87,501 133,1125 74,1856 -91,1140 -687,3514.0001 -1477,4575.0001 -93,126 -186,221 -244,221 -91,0 -479,-437 -673,-662 l 388,1233 -13,4 c -13,49 -127,183 -660,549 -305,209 -595,378 -837,504 -358,186 -618,281 -680,281 -73,0 -97,-48 -179,-207 -66,-129 -173,-339 -380,-672 -435.9996,-703 -1823.9996,-1758 -1827.9996,-1761 z"
   id="path130"
   style="fill:#000000;stroke:none;stroke-opacity:1" />
  <path
   class="fil11"
   d="m 2247.2494,13616.126 c 1,-1 287,-379 422,-545 131,-162 240,-323 241,-323 l 57,39 c -1,0 -111,163 -245,328 -131,162 -419,542 -420,543 z"
   id="path132"
   style="fill:#000000;stroke:none;stroke-opacity:1" />
  <path
   class="fil11"
   d="m 2070.2494,13366.126 c -3,6 -813,2001 -307,2921 235,426 723,734 1309,927 678,222 1483,291 2179,214 1272,-142 1406,-651 1454,-835 l 2,-6 c 47,-180 23,-903 23,-905 l 66,-39 c 0,2 27,772 -23,961 l -1,6 c -52,196 -194,739 -1514,887 -704,78 -1521,8 -2207,-218 -602,-197 -1105,-515 -1348,-959 -523,-949 300,-2973 303,-2979 z"
   id="path134"
   style="fill:#000000;stroke:none;stroke-opacity:1" />
  <path
   class="fil11"
   d="m 2347.2494,16938.126 c 0,0 0,-105 45,-257 45,-153 191,-384 192,-385 l 58,37 c 0,1 -141,224 -184,367 -42,143 -42,238 -42,238 z"
   id="path136"
   style="fill:#000000;stroke:none;stroke-opacity:1" />
  <path
   class="fil11"
   d="m 3912.2494,17439.126 c 0,0 39,-118 0,-247 -36,-121 -43,-120 -43,-120 l 76,-16 c 0,1 -15,-43 33,116 46,150 0,288 0,288 z"
   id="path138"
   style="stroke:none;stroke-opacity:1" />
  <path
   class="fil11"
   d="m 5237.2494,17445.126 c 0,0 14,-114 -42,-250 -57,-136 -166,-257 -167,-257 l 46,-26 c 0,0 122,105 185,257 63,152 46,285 46,285 z"
   id="path140"
   style="stroke:none;stroke-opacity:1" />
  <path
   class="fil11"
   d="m 1862.2494,16569.126 c 0,0 -63,-125 197,-443 273,-334 417,-150 417,-149 v 98 c 0,0 -145,-173 -364,95 -232,284 -187,369 -187,370 z"
   id="path142"
   style="fill:#000000;stroke:none;stroke-opacity:1" />
  <path
   class="fil11"
   d="m 7834.2494,14065.126 c 1,4 127,1159 -27,1932 -5,22 -8,42 -12,61 -58,357 -3,727 200,1034 205,308 560,553 1103,662 34,7 67,13 99,18 662,108 1553.9996,107 2330.9996,-33 643,-116 1205,-327 1487,-650 351,-402 494,-916 483,-1443 -5,-244 -253,-1226 -492,-1735 335,493 549,1121 561,1734 11,542 -137,1074 -500,1490 -293,336 -870,554 -1527,672 -784,142 -1684.9996,142 -2353.9996,33 -36,-6 -70,-12 -101,-18 -564,-113 -933,-370 -1147,-692 -214,-323 -272,-710 -211,-1083 4,-23 8,-44 12,-64 70,-353 75,-1739 95,-1918 z"
   id="path144"
   style="fill:#000000;stroke:none;stroke-opacity:1" />
  <path
   class="fil11"
   d="m 9214.2494,17809.126 c 0,-1 23,-433 222,-896 90,-212 205,-360 321,-454 146,-119 295.9996,-153 402.9996,-121 94,28 203,156 301,328 103,179 195,407 249,618 101,403 127,581 128,581 l -69,10 c 0,0 -26,-174 -127,-575 -51,-204 -142,-426 -241,-600 -90,-157 -185,-273 -261,-296 -87,-26 -211.9996,5 -339.9996,109 -107,88 -215,227 -301,427 -193,451 -216,872 -216,873 z"
   id="path146"
   style="fill:#000000;stroke:none;stroke-opacity:1" />
  <path
   class="fil11"
   d="m 12149.249,17634.126 c 0,-2 -168,-472 -490,-859 -145,-174 -284,-279 -409,-334 -144,-64 -268,-59 -359,-13 -172,86 -330,462 -330,463 l -64,-27 c 1,-1 168,-401 363,-498 108,-54 253,-61 418,11 133,59 281,171 434,354 330,397 502,878 502,879 z"
   id="path148"
   style="fill:#000000;stroke:none;stroke-opacity:1" />
  <path
   class="fil11"
   d="m 8171.2494,17370.126 c 0,-1 174,-302 514,-755 77,-103 150,-174 219,-220 90,-61 172,-81 244,-78 73,4 135,33 184,70 40,30 72,65 94,98 91,133 153,257 153,257 l -62,31 c 0,0 -60,-120 -148,-249 -18,-27 -45,-57 -78,-82 -40,-30 -89,-53 -147,-56 -58,-3 -126,15 -201,66 -63,42 -131,108 -203,205 -336,448 -509,746 -509,747 z"
   id="path150"
   style="fill:#000000;stroke:none;stroke-opacity:1" />
  <path
   class="fil11"
   d="m 7012.2494,15260.126 c 1,0 50,-82 353,-76 296,6 490,88 491,89 l -27,64 c 0,-1 -183,-78 -465,-84 -275,-5 -359,77 -359,77 z"
   id="path152"
   style="fill:#000000;stroke:none;stroke-opacity:1" />
  <path
   class="fil11"
   d="m 13365.249,14811.126 c 1,-1 361,-100 1054,-923 150,-178 520,-625 906,-1226 -1,1 -149,435 -853,1271 -707,838 -1087,944 -1088,944 z"
   id="path154"
   style="fill:#000000;stroke:none;stroke-opacity:1" />
  <path
   class="fil11"
   d="m 13249.249,16826.126 c 213,31 656,20 1062,-64 289,-59 557,-155 707,-297 278,-264 318,-628 362,-1014 12,-115 26,-232 45,-350 52,-310 138,-492 433,-1115 201,-425 501,-1058 955,-2082 635,-1430 1034,-3663.0001 575,-5819.0001 -344,-1614 -1169,-3184 -2736,-4343 -104,-68 -211,-135 -318,-200 -2252,-1355.99999 -4612.9996,-1629.999991 -6516.9996,-1399.99999 -1901,229 -3344,957.99999 -3769,1608.99999 -6,9 -13,20 -20,32 l -37,-50 c 6,-10 -9,-8 -1,-20 434,-665 1897,-1407.99999 3818,-1639.999991 1918,-230.999999 4293.9996,44.000001 6560.9996,1409.999991 107,64 214,131 322,202 l 2,1 c 1583,1170 2415,2756 2762,4385 463,2171 61,4420.0001 -579,5861.0001 -453,1023 -753,1657 -955,2083 -292,616 -377,797 -428,1098 -19,115 -32,231 -45,346 -44,399 -86,775 -382,1056 -160,152 -441,253 -741,315 -414,85 -867,97 -1086,65 z"
   id="path156"
   style="fill:#000000;stroke:none;stroke-opacity:1" />
  <path
   class="fil11"
   d="m 14151.249,16823.126 c 1,-1 39,-290 -26,-577 -29,-129 -73,-221 -123,-283 -58,-71 -124,-102 -184,-102 -112,-1 -294,152 -295,152 l -26,-30 c 1,-1 195,-164 322,-163 70,1 148,36 214,118 54,66 101,163 131,299 67,295 28,590 28,591 z"
   id="path158"
   style="fill:#000000;stroke:none;stroke-opacity:1" />
  <path
   class="fil11"
   d="m 10750.249,6353.1259 c 416,423 636,961 650,1588 14,613 -170,1312 -563,2074.0001 l -61,-32.0001 c 387,-751 568,-1439 555,-2041 6,-267 -168,-1179 -581,-1589 z"
   id="path160"
   style="fill:#000000;stroke:none;stroke-opacity:1" />
  <path
   class="fil12"
   d="m 3570.2494,14004.126 c -237,-384 -453,-770 -644,-1159 -44,62 -119,165 -204,270 -131,162 -419,542 -420,543 l -30,-23 -2,2 c -4,-5 -9,-10 -14,-15 l -9,-6 c 0,0 0,-1 1,-1 -66,-65 -131,-133 -196,-205 -114,298 -751,2036 -289,2877 31,56 66,109 105,161 21,-71 72,-176 191,-322 163,-200 281,-214 349,-193 -63,-205 -89,-432 -71,-676 16,-226 65,-448 142,-633 73,-175 173,-318 295,-403 251,-176 513,-247 765,-221 10,1 21,2 31,4 z"
   id="path162"
   style="fill:#6e96aa;fill-opacity:1;stroke:none;stroke-opacity:1" />
  <path
   class="fil12"
   d="m 6017.2494,16454.126 c -336,217 -644,371 -925,475 37,36 119,125 167,240 44,106 49,203 48,252 1220,-150 1351,-647 1398,-828 l 2,-6 c 37,-142 30,-621 25,-818 -210,279 -447,512 -715,685 z"
   id="path164"
   style="fill:#6e96aa;fill-opacity:1;stroke:none;stroke-opacity:1" />
  <ellipse
   class="fil5"
   cx="4337.2495"
   cy="13566.126"
   rx="349"
   ry="446"
   id="ellipse166"
   style="fill:#6e96aa;fill-opacity:1;stroke:none;stroke-opacity:1" />
  <ellipse
   class="fil5"
   cx="4209.2495"
   cy="12153.126"
   rx="349"
   ry="879"
   id="ellipse168"
   style="fill:#6e96aa;fill-opacity:1;stroke:none;stroke-opacity:1" />
  <ellipse
   class="fil5"
   transform="matrix(0.99070759,-0.1360091,0.0473679,0.99887751,0,0)"
   rx="351.13211"
   ry="757.74658"
   id="ellipse170"
   style="fill:#6e96aa;fill-opacity:1;stroke:none;stroke-width:1.3045;stroke-opacity:1"
   cx="3575.4978"
   cy="10867.625" />
  <ellipse
   class="fil5"
   transform="matrix(0.98757346,-0.15715809,0.04087365,0.99916432,0,0)"
   rx="352.24646"
   ry="878.14185"
   id="ellipse172"
   style="fill:#6e96aa;fill-opacity:1;stroke:none;stroke-width:1.40655;stroke-opacity:1"
   cx="3656.3108"
   cy="9225.3545" />
  <ellipse
   class="fil5"
   transform="matrix(0.98757346,-0.15715809,0.04087365,0.99916432,0,0)"
   rx="352.24646"
   ry="878.14185"
   id="ellipse174"
   style="fill:#6e96aa;fill-opacity:1;stroke:none;stroke-width:1.40655;stroke-opacity:1"
   cx="3751.3525"
   cy="7384.0522" />
  <ellipse
   class="fil5"
   transform="matrix(0.99220019,-0.12465469,-0.19855819,0.9800891,0,0)"
   rx="379.67197"
   ry="765.37042"
   id="ellipse176"
   style="fill:#6e96aa;fill-opacity:1;stroke:none;stroke-width:1.36329;stroke-opacity:1"
   cx="5436.6362"
   cy="5895.4111" />
  <path
   class="fil13"
   d="m 10368.249,9515.1259 z m -815.9996,102 c -297,180 -532,483.0001 -671,841.0001 -236,606 -224,1080 -198,1311 v 1 c 38,77 121,171 236,270 239,205 610,428 994,563 380.9996,135 772.9996,184 1057.9996,45 78,-38 149,-91 208,-160 11,-12 21,-25 30,-38 260,-350 185,-966 -21,-1552 -208,-590 -549,-1149.0001 -820,-1383.0001 -15,-13 -30,-25 -44,-35 -281,-36 -553.9996,6 -771.9996,137 z"
   id="path178"
   style="fill:#824b73;fill-opacity:1;stroke:none;stroke-opacity:1" />
  <path
   class="fil14"
   d="m 11076.249,12537.126 c 0,0 -758,-393 -1377.9996,-1263 -575,-806 -219,-1615.0001 172,-1779.0001 -114,24 -221,64 -318,122 -297,180 -532,483.0001 -671,841.0001 -236,606 -224,1080 -198,1311 v 1 c 38,77 121,171 236,270 239,205 610,428 994,563 380.9996,135 772.9996,184 1057.9996,45 40,-19 78,-43 114,-71 -6,-13 -9,-27 -9,-40 z"
   id="path180"
   style="fill:#824b73;fill-opacity:1;stroke:none;stroke-opacity:1" />
  <path
   class="fil13"
   d="m 2483.2494,11824.126 c -74,-33 -891,-412 -1285,-933 -27,-36 -52,-74 -73,-112 -79,306 -349.99997,1409 -272.99997,1748 7,29 16,55 28,80 53,106 156.99997,169 283.99997,197 132,29 288,21 438,-13 98,-22 193,-56 278,-98 341,-168 693,-420 762,-470 -56,-132 -109,-265 -159,-399 z"
   id="path182"
   style="fill:#824b73;fill-opacity:1;stroke:none;stroke-opacity:1" />
  <path
   class="fil14"
   d="m 2483.2494,11824.126 c -49,-22 -427,-197 -791,-465 v 121 c 0,0 -16,507 -387,863 -206,197 -347.99997,243 -433.99997,244 3,7 6,13 9,20 53,106 156.99997,169 283.99997,197 132,29 288,21 438,-13 98,-22 193,-56 278,-98 341,-168 693,-420 762,-470 -56,-132 -109,-265 -159,-399 z"
   id="path184"
   style="fill:#824b73;fill-opacity:1;stroke:none;stroke-opacity:1" />
  <path
   class="fil14"
   d="m 2450.2494,16052.126 c -52,-36 -174,-82 -338,118 -164,201 -190,303 -191,345 117,137 262,259 430,366 5,-46 16,-116 41,-200 40,-135 158,-330 186,-375 -50,-80 -93,-165 -128,-254 z"
   id="path186"
   style="fill:#824b73;fill-opacity:1;stroke:none;stroke-opacity:1" />
  <path
   class="fil13"
   d="m 2620.2494,16370.126 c -42,69 -130,222 -162,330 -32,108 -40,188 -41,221 195,117 417,214 655,293 268,88 556,152 848,192 9,-44 19,-126 -8,-214 -16,-53 -26,-83 -33,-99 -485,-68 -891,-280 -1165,-602 -33,-39 -65,-79 -94,-121 z"
   id="path188"
   style="fill:#824b73;fill-opacity:1;stroke:none;stroke-opacity:1" />
  <path
   class="fil14"
   d="m 4828.2494,17015.126 c -328,92 -617,113 -871,87 5,17 12,40 21,70 30,98 21,190 11,243 422,53 853,57 1249,14 2,-36 1,-129 -43,-234 -47,-112 -129,-213 -157,-246 -72,25 -142,47 -210,66 z"
   id="path190"
   style="fill:#824b73;fill-opacity:1;stroke:none;stroke-opacity:1" />
  <path
   class="fil14"
   d="m 8740.2494,16657.126 c -274,365 -439,630 -491,717 206,173 485,307 849,380 34,7 67,13 99,18 7,1 13,2 20,3 10,-111 53,-476 219,-862 23,-55 48,-106 75,-152 -18,-34 -71,-132 -142,-237 -18,-27 -45,-57 -78,-82 -40,-30 -89,-53 -147,-56 -58,-3 -126,15 -201,66 -63,42 -131,108 -203,205 z"
   id="path192"
   style="fill:#824b73;fill-opacity:1;stroke:none;stroke-opacity:1" />
  <path
   class="fil13"
   d="m 9499.2494,16940.126 c -164,383 -205,745 -214,846 435,62 956.9996,80 1476.9996,46 -14,-74 -47,-245 -120,-532 -51,-204 -142,-426 -241,-600 -90,-157 -185,-273 -261,-296 -87,-26 -211.9996,5 -339.9996,109 -107,88 -215,227 -301,427 z"
   id="path194"
   style="fill:#824b73;fill-opacity:1;stroke:none;stroke-opacity:1" />
  <path
   class="fil14"
   d="m 10567.249,16876.126 c 58,132 109,273 143,408 74,296 108,471 121,543 236,-18 471,-47 697,-88 213,-38 417,-87 605,-147 -48,-123 -209,-498 -474,-817 -145,-174 -284,-279 -409,-334 -144,-64 -268,-59 -359,-13 -152,76 -293,378 -324,448 z"
   id="path196"
   style="fill:#824b73;fill-opacity:1;stroke:none;stroke-opacity:1" />
  <path
   class="fil15"
   d="m 13552.249,15991.126 c -33,296 -119,582 -268,840 194,22 533,14 871,-40 8,-83 22,-315 -30,-545 -29,-129 -73,-221 -123,-283 -58,-71 -124,-102 -184,-102 -85,-1 -211,87 -266,130 z"
   id="path198"
   style="fill:#824b73;fill-opacity:1;stroke:none;stroke-opacity:1" />
  
  
  
  
</svg>
